HIERARCHY
ROOT Root
{
  OFFSET 0.0 0.0 0.0
  CHANNELS 6 Xposition Yposition Zposition Zrotation Yrotation Xrotation
  JOINT Hips
  {
    OFFSET 0.0 100.0 0.0
    CHANNELS 6 Xposition Yposition Zposition Zrotation Yrotation Xrotation
    JOINT Spine1
    {
      OFFSET 5.003913 -0.037094 -0.013727
      CHANNELS 3 Zrotation Yrotation Xrotation
      JOINT Spine2
      {
        OFFSET 7.125363 -1e-06 0.0
        CHANNELS 3 Zrotation Yrotation Xrotation
        JOINT Chest
        {
          OFFSET 7.594027 1e-06 0.0
          CHANNELS 3 Zrotation Yrotation Xrotation
          JOINT Neck1
          {
            OFFSET 26.313086 -0.460272 -0.181672
            CHANNELS 3 Zrotation Yrotation Xrotation
            JOINT Neck2
            {
              OFFSET 8.045911 0.0 0.0
              CHANNELS 3 Zrotation Yrotation Xrotation
              JOINT Head
              {
                OFFSET 6.432774 0.0 0.0
                CHANNELS 3 Zrotation Yrotation Xrotation
                JOINT HeadEnd
                {
                  OFFSET 16.169773 0.06451 0.00362
                  CHANNELS 3 Zrotation Yrotation Xrotation
                }
                JOINT Jaw
                {
                  OFFSET 0.108741 3.12938 0.002639
                  CHANNELS 3 Zrotation Yrotation Xrotation
                }
                JOINT LeftEye
                {
                  OFFSET 4.45173 8.166359 3.206392
                  CHANNELS 3 Zrotation Yrotation Xrotation
                }
                JOINT RightEye
                {
                  OFFSET 4.436895 8.135758 -3.222429
                  CHANNELS 3 Zrotation Yrotation Xrotation
                }
              }
            }
          }
          JOINT LeftShoulder
          {
            OFFSET 23.218927 5.195579 1.621656
            CHANNELS 3 Zrotation Yrotation Xrotation
            JOINT LeftArm
            {
              OFFSET 15.902118 2e-06 -2e-06
              CHANNELS 3 Zrotation Yrotation Xrotation
              JOINT LeftForeArm
              {
                OFFSET 28.739307 0.0 -1e-06
                CHANNELS 3 Zrotation Yrotation Xrotation
                JOINT LeftHand
                {
                  OFFSET 27.093981 -4e-06 0.0
                  CHANNELS 3 Zrotation Yrotation Xrotation
                  JOINT LeftHandThumb1
                  {
                    OFFSET 2.276781 3.380274 0.83384
                    CHANNELS 3 Zrotation Yrotation Xrotation
                    JOINT LeftHandThumb2
                    {
                      OFFSET 4.705309 -1e-06 -1e-06
                      CHANNELS 3 Zrotation Yrotation Xrotation
                      JOINT LeftHandThumb3
                      {
                        OFFSET 2.798515 0.0 3e-06
                        CHANNELS 3 Zrotation Yrotation Xrotation
                        JOINT LeftHandThumbEnd
                        {
                          OFFSET 3.180793 4e-06 -4e-06
                          CHANNELS 3 Zrotation Yrotation Xrotation
                        }
                      }
                    }
                  }
                  JOINT LeftHandIndex1
                  {
                    OFFSET 3.247786 2.352677 0.137192
                    CHANNELS 3 Zrotation Yrotation Xrotation
                    JOINT LeftHandIndex2
                    {
                      OFFSET 6.367095 1e-06 0.0
                      CHANNELS 3 Zrotation Yrotation Xrotation
                      JOINT LeftHandIndex3
                      {
                        OFFSET 3.662364 0.0 0.0
                        CHANNELS 3 Zrotation Yrotation Xrotation
                        JOINT LeftHandIndex4
                        {
                          OFFSET 2.329242 4e-06 -4e-06
                          CHANNELS 3 Zrotation Yrotation Xrotation
                          JOINT LeftHandIndexEnd
                          {
                            OFFSET 2.767823 1e-06 0.0
                            CHANNELS 3 Zrotation Yrotation Xrotation
                          }
                        }
                      }
                    }
                  }
                  JOINT LeftHandMiddle1
                  {
                    OFFSET 3.163612 0.945023 -0.406112
                    CHANNELS 3 Zrotation Yrotation Xrotation
                    JOINT LeftHandMiddle2
                    {
                      OFFSET 6.276789 3e-06 0.0
                      CHANNELS 3 Zrotation Yrotation Xrotation
                      JOINT LeftHandMiddle3
                      {
                        OFFSET 4.35652 -1e-06 4e-06
                        CHANNELS 3 Zrotation Yrotation Xrotation
                        JOINT LeftHandMiddle4
                        {
                          OFFSET 2.996877 0.0 8e-06
                          CHANNELS 3 Zrotation Yrotation Xrotation
                          JOINT LeftHandMiddleEnd
                          {
                            OFFSET 2.323256 3e-06 -4e-06
                            CHANNELS 3 Zrotation Yrotation Xrotation
                          }
                        }
                      }
                    }
                  }
                  JOINT LeftHandRing1
                  {
                    OFFSET 2.882606 -0.309162 0.107445
                    CHANNELS 3 Zrotation Yrotation Xrotation
                    JOINT LeftHandRing2
                    {
                      OFFSET 6.033198 0.0 4e-06
                      CHANNELS 3 Zrotation Yrotation Xrotation
                      JOINT LeftHandRing3
                      {
                        OFFSET 4.350578 3e-06 0.0
                        CHANNELS 3 Zrotation Yrotation Xrotation
                        JOINT LeftHandRing4
                        {
                          OFFSET 2.651321 2e-06 -7e-06
                          CHANNELS 3 Zrotation Yrotation Xrotation
                          JOINT LeftHandRingEnd
                          {
                            OFFSET 1.937663 1e-06 -4e-06
                            CHANNELS 3 Zrotation Yrotation Xrotation
                          }
                        }
                      }
                    }
                  }
                  JOINT LeftHandPinky1
                  {
                    OFFSET 2.865315 -1.525436 0.575687
                    CHANNELS 3 Zrotation Yrotation Xrotation
                    JOINT LeftHandPinky2
                    {
                      OFFSET 5.54936 1e-06 -8e-06
                      CHANNELS 3 Zrotation Yrotation Xrotation
                      JOINT LeftHandPinky3
                      {
                        OFFSET 3.070974 0.0 -4e-06
                        CHANNELS 3 Zrotation Yrotation Xrotation
                        JOINT LeftHandPinky4
                        {
                          OFFSET 1.549672 1e-06 0.0
                          CHANNELS 3 Zrotation Yrotation Xrotation
                          JOINT LeftHandPinkyEnd
                          {
                            OFFSET 1.952123 0.0 0.0
                            CHANNELS 3 Zrotation Yrotation Xrotation
                          }
                        }
                      }
                    }
                  }
                }
              }
            }
          }
          JOINT RightShoulder
          {
            OFFSET 23.161716 5.296122 -1.380114
            CHANNELS 3 Zrotation Yrotation Xrotation
            JOINT RightArm
            {
              OFFSET -16.027195 -2e-06 1.1e-05
              CHANNELS 3 Zrotation Yrotation Xrotation
              JOINT RightForeArm
              {
                OFFSET -28.736639 4e-06 2e-06
                CHANNELS 3 Zrotation Yrotation Xrotation
                JOINT RightHand
                {
                  OFFSET -27.133619 6e-06 0.0
                  CHANNELS 3 Zrotation Yrotation Xrotation
                  JOINT RightHandThumb1
                  {
                    OFFSET -2.274328 -3.351035 -0.83067
                    CHANNELS 3 Zrotation Yrotation Xrotation
                    JOINT RightHandThumb2
                    {
                      OFFSET -4.703594 -3e-06 2e-06
                      CHANNELS 3 Zrotation Yrotation Xrotation
                      JOINT RightHandThumb3
                      {
                        OFFSET -2.794935 -4e-06 -3e-06
                        CHANNELS 3 Zrotation Yrotation Xrotation
                        JOINT RightHandThumbEnd
                        {
                          OFFSET -3.183852 4e-06 1e-06
                          CHANNELS 3 Zrotation Yrotation Xrotation
                        }
                      }
                    }
                  }
                  JOINT RightHandIndex1
                  {
                    OFFSET -3.253496 -2.33755 -0.127667
                    CHANNELS 3 Zrotation Yrotation Xrotation
                    JOINT RightHandIndex2
                    {
                      OFFSET -6.344434 0.0 0.0
                      CHANNELS 3 Zrotation Yrotation Xrotation
                      JOINT RightHandIndex3
                      {
                        OFFSET -3.654871 0.0 -8e-06
                        CHANNELS 3 Zrotation Yrotation Xrotation
                        JOINT RightHandIndex4
                        {
                          OFFSET -2.327586 -1e-06 0.0
                          CHANNELS 3 Zrotation Yrotation Xrotation
                          JOINT RightHandIndexEnd
                          {
                            OFFSET -2.770001 3e-06 8e-06
                            CHANNELS 3 Zrotation Yrotation Xrotation
                          }
                        }
                      }
                    }
                  }
                  JOINT RightHandMiddle1
                  {
                    OFFSET -3.168223 -0.944764 0.411762
                    CHANNELS 3 Zrotation Yrotation Xrotation
                    JOINT RightHandMiddle2
                    {
                      OFFSET -6.266691 -1e-06 -4e-06
                      CHANNELS 3 Zrotation Yrotation Xrotation
                      JOINT RightHandMiddle3
                      {
                        OFFSET -4.348901 0.0 0.0
                        CHANNELS 3 Zrotation Yrotation Xrotation
                        JOINT RightHandMiddle4
                        {
                          OFFSET -3.00024 2e-06 -4e-06
                          CHANNELS 3 Zrotation Yrotation Xrotation
                          JOINT RightHandMiddleEnd
                          {
                            OFFSET -2.321477 -4e-06 -4e-06
                            CHANNELS 3 Zrotation Yrotation Xrotation
                          }
                        }
                      }
                    }
                  }
                  JOINT RightHandRing1
                  {
                    OFFSET -2.885654 0.293261 -0.119232
                    CHANNELS 3 Zrotation Yrotation Xrotation
                    JOINT RightHandRing2
                    {
                      OFFSET -6.032835 -1e-06 -4e-06
                      CHANNELS 3 Zrotation Yrotation Xrotation
                      JOINT RightHandRing3
                      {
                        OFFSET -4.33881 0.0 -4e-06
                        CHANNELS 3 Zrotation Yrotation Xrotation
                        JOINT RightHandRing4
                        {
                          OFFSET -2.654903 -4e-06 -4e-06
                          CHANNELS 3 Zrotation Yrotation Xrotation
                          JOINT RightHandRingEnd
                          {
                            OFFSET -1.935122 0.0 4e-06
                            CHANNELS 3 Zrotation Yrotation Xrotation
                          }
                        }
                      }
                    }
                  }
                  JOINT RightHandPinky1
                  {
                    OFFSET -2.866241 1.503904 -0.60527
                    CHANNELS 3 Zrotation Yrotation Xrotation
                    JOINT RightHandPinky2
                    {
                      OFFSET -5.553177 -2e-06 0.0
                      CHANNELS 3 Zrotation Yrotation Xrotation
                      JOINT RightHandPinky3
                      {
                        OFFSET -3.062664 -1e-06 -4e-06
                        CHANNELS 3 Zrotation Yrotation Xrotation
                        JOINT RightHandPinky4
                        {
                          OFFSET -1.546529 2e-06 4e-06
                          CHANNELS 3 Zrotation Yrotation Xrotation
                          JOINT RightHandPinkyEnd
                          {
                            OFFSET -1.952341 0.0 -4e-06
                            CHANNELS 3 Zrotation Yrotation Xrotation
                          }
                        }
                      }
                    }
                  }
                }
              }
            }
          }
        }
      }
    }
    JOINT LeftLeg
    {
      OFFSET -8.443107 2.567604 10.043214
      CHANNELS 3 Zrotation Yrotation Xrotation
      JOINT LeftShin
      {
        OFFSET 43.229198 1e-06 -1e-06
        CHANNELS 3 Zrotation Yrotation Xrotation
        JOINT LeftFoot
        {
          OFFSET 42.298611 1e-06 1e-06
          CHANNELS 3 Zrotation Yrotation Xrotation
          JOINT LeftToeBase
          {
            OFFSET 14.165858 1e-06 0.0
            CHANNELS 3 Zrotation Yrotation Xrotation
            JOINT LeftToeEnd
            {
              OFFSET 6.7141 -0.234461 0.0
              CHANNELS 3 Zrotation Yrotation Xrotation
            }
          }
        }
      }
    }
    JOINT RightLeg
    {
      OFFSET -8.303923 2.592729 -10.047278
      CHANNELS 3 Zrotation Yrotation Xrotation
      JOINT RightShin
      {
        OFFSET -43.369682 0.0 1e-06
        CHANNELS 3 Zrotation Yrotation Xrotation
        JOINT RightFoot
        {
          OFFSET -42.260784 4e-06 2e-06
          CHANNELS 3 Zrotation Yrotation Xrotation
          JOINT RightToeBase
          {
            OFFSET -14.222245 -2e-06 -1e-06
            CHANNELS 3 Zrotation Yrotation Xrotation
            JOINT RightToeEnd
            {
              OFFSET -6.660062 0.232574 -2e-06
              CHANNELS 3 Zrotation Yrotation Xrotation
            }
          }
        }
      }
    }
  }
}
MOTION
Frames: 5
Frame Time: 0.03333333333333333
0.0 0.0 0.0 0.0 -0.0 0.0 -1.154003 48.70443 6.334733 91.199303 -63.996395 88.874313 10.140292 -1.29567 -0.847638 -5.052571 -1.112663 -0.025436 17.760962 -0.183481 -1.573083 17.05014 -0.108875 3.879327 -2.860796 -0.155251 1.811113 -29.649897 2.469708 0.596021 7e-06 0.0 -0.0 -0.167939 -0.063146 0.034493 -0.158077 0.007789 0.034003 -0.167884 -0.132609 0.028077 -42.860641 -62.973915 44.06625 94.091721 -1.450097 -25.692104 6.604457 -0.313653 -0.035963 67.256332 73.627205 69.439079 17.636633 -26.322733 52.411201 -19.466661 -14.395597 29.410395 -1e-06 -8.774822 -3e-06 16.038876 -17.770153 6.337908 -0.609776 -1.795654 -3.889329 -4.80709 -11.046809 -2.937851 4e-06 -20.976019 -1e-06 -5.019971 -25.03356 -4.031882 6e-06 -1e-06 -0.0 -10.634536 -5.686972 -3.565588 10.573275 -17.922951 -3.113901 2e-06 -13.821209 1e-06 -0.501778 -31.181505 -4.027016 -10.079815 -58.61055 6.618895 -13.982716 -7.150199 -2.875043 13.772731 -8.401492 -3.218242 0.347733 -34.211555 0.771655 -0.963029 -17.73337 2.621021 -0.0 -0.0 -0.0 -17.346422 -20.095221 -4.201784 21.757561 -1.638373 3.86643 1e-06 -6.338825 1e-06 -1.69759 -22.591747 -6.194007 0.0 -5e-06 -2e-06 149.590134 -67.514244 30.627678 102.917664 0.291468 -26.5672 1.756204 -0.705141 -0.008374 75.789574 77.698357 72.843323 22.182108 -20.375887 49.9333 -16.701811 -16.743525 28.476522 -3e-06 -12.690598 0.0 16.096699 -17.44677 2.644091 -0.105919 -1.513856 -4.27588 -5.03904 -5.612871 -2.953556 4e-06 -11.020523 -3e-06 -6.111297 -15.89533 -3.840469 0.0 0.0 -0.0 -10.283367 -5.680288 -4.341837 11.028292 -11.302404 -2.372632 -1.384269 -14.238583 -6.320119 -0.625439 -26.924191 -3.827601 -4.272072 -48.950977 -4.258619 -13.708521 -7.363475 -3.720937 18.141146 -14.052738 -3.242674 5e-06 -18.787268 -2e-06 -0.429711 -8.456043 2.555502 0.0 1e-06 0.0 -15.923532 -20.094482 -5.473581 30.419207 -7.190823 1.735927 2e-06 -8.162925 -2e-06 -1.861902 -22.861473 -6.167943 -1e-06 -2e-06 -1e-06 112.172333 -9.562437 2.380328 113.227463 -0.30125 0.371765 -79.139412 12.134431 -2.512144 -25.865789 1.840865 1.731295 -0.999999 -0.0 -0.0 -65.98275 -1.014629 3.434921 114.309235 0.348774 0.142718 -89.988861 2.657573 -0.387495 -35.55022 0.987147 1.195356 -1.000002 0.0 -0.0 
0.0 0.0 0.0 0.0 -0.0 0.0 -1.101681 48.69162 6.587043 90.787331 -64.099274 89.196175 10.041692 -1.227343 -0.803201 -5.138761 -1.073991 0.026768 17.836571 -0.150035 -1.467503 17.081522 -0.111891 3.755569 -2.861461 -0.183469 1.81922 -29.57753 2.583476 0.568568 6e-06 -0.0 -0.0 -0.173553 -0.09611 0.040397 -0.124492 -0.034162 0.047253 -0.137415 -0.154392 0.023188 -42.968571 -63.027458 44.455635 94.406868 -1.236554 -26.331802 6.34828 -0.303294 -0.036436 68.544128 72.811996 70.368423 17.636625 -26.322729 52.411182 -19.46666 -14.395597 29.410385 -3e-06 -8.774821 -2e-06 16.051247 -17.785934 6.328126 -0.609777 -1.795653 -3.889327 -4.807088 -11.046808 -2.93785 4e-06 -20.976015 -0.0 -5.019971 -25.033552 -4.031881 6e-06 -0.0 -0.0 -10.634533 -5.686969 -3.565586 10.573272 -17.922945 -3.1139 2e-06 -13.821203 1e-06 -0.501778 -31.181494 -4.027014 -9.991868 -58.692375 6.569275 -13.982713 -7.150197 -2.875041 13.772729 -8.401489 -3.218241 0.347733 -34.211544 0.771656 -0.963029 -17.733368 2.62102 0.0 -0.0 0.0 -17.346416 -20.095213 -4.201779 21.757555 -1.638373 3.866427 1e-06 -6.338821 1e-06 -1.69759 -22.59174 -6.194005 0.0 -4e-06 -2e-06 149.461609 -67.572029 30.987223 102.859764 0.31017 -26.709078 1.685532 -0.670549 -0.006191 74.887207 77.211449 71.713593 22.182117 -20.375891 49.933304 -16.701815 -16.743528 28.476524 -3e-06 -12.690601 -1e-06 16.090151 -17.363783 2.64415 -0.10592 -1.513856 -4.275879 -5.039041 -5.612872 -2.953557 4e-06 -11.020521 -2e-06 -6.111299 -15.895334 -3.84047 -0.0 0.0 1e-06 -10.28337 -5.680288 -4.341837 11.028294 -11.302402 -2.372632 -1.384269 -14.23858 -6.320119 -0.62544 -26.924187 -3.827599 -4.234226 -49.016266 -4.172268 -13.708527 -7.363475 -3.720939 18.14115 -14.052744 -3.242675 7e-06 -18.78727 -2e-06 -0.429711 -8.456047 2.555503 -0.0 3e-06 -0.0 -15.923536 -20.094482 -5.473584 30.41921 -7.190827 1.735927 3e-06 -8.162926 -2e-06 -1.861901 -22.861469 -6.167942 -2e-06 -4e-06 -1e-06 112.349342 -9.68674 2.388818 112.966141 -0.34717 0.365356 -79.053658 12.139604 -2.333091 -25.808071 1.880777 1.676648 -1.0 0.0 0.0 -65.749802 -0.865733 3.296966 113.912903 0.318337 0.119391 -89.671021 2.636313 -0.388863 -35.126759 0.978917 1.211865 -1.000001 0.0 -0.0 
0.0 0.0 0.0 0.0 -0.0 0.0 -1.060835 48.689831 6.82515 90.559708 -64.154831 89.409081 9.941791 -1.186539 -0.76573 -5.225571 -1.033716 0.089072 17.929255 -0.140063 -1.420466 17.166187 -0.050082 3.629051 -2.868883 -0.23099 1.820776 -29.597891 2.57759 0.551849 6e-06 -0.0 -0.0 -0.17244 -0.117998 0.044847 -0.144623 -0.061087 0.04669 -0.149896 -0.169966 0.028223 -42.731819 -63.056267 44.419498 94.590782 -1.096609 -26.444992 6.198326 -0.316532 -0.035128 68.641747 72.539917 70.11998 17.636639 -26.322737 52.41119 -19.466663 -14.395594 29.410385 -2e-06 -8.774822 -3e-06 16.082201 -17.775976 6.261688 -0.609777 -1.795653 -3.889328 -4.807089 -11.046812 -2.93785 4e-06 -20.976023 1e-06 -5.019972 -25.033562 -4.03188 6e-06 -1e-06 0.0 -10.634535 -5.686971 -3.565587 10.573274 -17.922953 -3.1139 3e-06 -13.821209 1e-06 -0.501778 -31.181507 -4.027014 -9.864266 -58.716431 6.484802 -13.982716 -7.150198 -2.875041 13.772731 -8.401493 -3.21824 0.347734 -34.211559 0.771655 -0.963029 -17.733376 2.62102 -0.0 -0.0 1e-06 -17.346422 -20.095221 -4.201782 21.757557 -1.638375 3.86643 1e-06 -6.338825 1e-06 -1.69759 -22.591751 -6.194007 0.0 -4e-06 -2e-06 149.695435 -67.635574 30.992632 102.619591 0.302989 -26.794266 1.688148 -0.684586 -0.005101 74.811234 76.943039 71.80204 22.182114 -20.375895 49.933327 -16.701815 -16.743526 28.476536 -3e-06 -12.6906 -1e-06 16.085703 -17.269678 2.661283 -0.10592 -1.513856 -4.275881 -5.03904 -5.612873 -2.953557 4e-06 -11.020521 -2e-06 -6.111297 -15.89533 -3.84047 -0.0 -1e-06 -0.0 -10.283369 -5.680288 -4.341839 11.028294 -11.302404 -2.372633 -1.384268 -14.238579 -6.320122 -0.625438 -26.924191 -3.827601 -4.19008 -49.002647 -4.128753 -13.708524 -7.363476 -3.72094 18.141148 -14.05274 -3.242674 7e-06 -18.787268 -2e-06 -0.429712 -8.456045 2.555505 -0.0 3e-06 0.0 -15.923532 -20.094482 -5.473588 30.41921 -7.190827 1.735927 3e-06 -8.162925 -1e-06 -1.861899 -22.861467 -6.167942 -2e-06 -5e-06 -1e-06 112.582703 -9.728767 2.354378 112.711693 -0.378709 0.369249 -79.175385 12.049076 -2.28899 -25.975414 1.899867 1.65343 -0.999999 0.0 0.0 -65.476105 -0.771933 3.265604 113.571083 0.31307 0.127227 -89.593094 2.619955 -0.499027 -34.974464 0.970607 1.223092 -1.000001 0.0 -0.0 
0.0 0.0 0.0 0.0 -0.0 0.0 -1.041591 48.685284 6.994674 90.3517 -64.233788 89.652611 9.844193 -1.158035 -0.740511 -5.299348 -1.012131 0.123088 17.964603 -0.081516 -1.414841 17.21998 -0.002568 3.526485 -2.872452 -0.269146 1.814269 -29.69166 2.560706 0.554024 7e-06 -0.0 0.0 -0.170366 -0.131772 0.047411 -0.188055 -0.075681 0.037085 -0.182205 -0.183235 0.040436 -42.451694 -63.077858 44.295166 94.710701 -1.010143 -26.52 6.13454 -0.341005 -0.040271 68.674706 72.424698 70.129707 17.636635 -26.322729 52.411186 -19.466665 -14.395597 29.410385 -1e-06 -8.774822 -3e-06 16.084213 -17.759483 6.223625 -0.609776 -1.795655 -3.889327 -4.80709 -11.046809 -2.93785 4e-06 -20.976015 -1e-06 -5.019971 -25.03356 -4.031882 6e-06 0.0 -0.0 -10.634536 -5.686972 -3.565587 10.573275 -17.922951 -3.113901 3e-06 -13.821206 1e-06 -0.501777 -31.181505 -4.027017 -9.813435 -58.757126 6.441428 -13.982716 -7.150198 -2.875041 13.772731 -8.40149 -3.218241 0.347734 -34.211555 0.771654 -0.963029 -17.733372 2.621019 0.0 -0.0 -0.0 -17.346424 -20.095219 -4.20178 21.757561 -1.638375 3.866429 1e-06 -6.338823 1e-06 -1.69759 -22.591747 -6.194008 -0.0 -4e-06 -2e-06 149.970352 -67.659767 30.866322 102.399635 0.167177 -26.834974 1.773323 -0.665376 -0.005211 74.754539 76.85762 72.043983 22.182117 -20.375883 49.933296 -16.701805 -16.743525 28.476515 -2e-06 -12.690598 -2e-06 16.120464 -17.205175 2.686374 -0.105919 -1.513856 -4.275878 -5.03904 -5.612869 -2.953555 4e-06 -11.020519 -1e-06 -6.111297 -15.895328 -3.840469 -0.0 -1e-06 -0.0 -10.283369 -5.680287 -4.341836 11.028294 -11.302401 -2.372632 -1.384269 -14.238574 -6.320119 -0.625438 -26.924177 -3.827598 -4.15061 -49.034653 -4.073276 -13.708524 -7.363473 -3.720936 18.141148 -14.052736 -3.242672 6e-06 -18.787258 -2e-06 -0.429711 -8.456042 2.555502 -1e-06 3e-06 -0.0 -15.923536 -20.094479 -5.473582 30.41921 -7.190824 1.735929 3e-06 -8.162922 -1e-06 -1.861902 -22.861464 -6.167939 -2e-06 -2e-06 -0.0 112.69503 -9.722176 2.393343 112.557777 -0.396297 0.372468 -79.462639 11.98996 -2.311584 -26.31275 1.906755 1.646893 -0.999998 -0.0 0.0 -65.304001 -0.722686 3.250451 113.345314 0.352889 0.140329 -89.694504 2.545168 -0.671753 -35.034023 0.966981 1.229988 -1.000001 0.0 -0.0 
0.0 0.0 0.0 0.0 -0.0 0.0 -1.026107 48.69305 7.099023 90.124916 -64.334045 89.901344 9.762831 -1.146906 -0.720273 -5.358361 -1.00893 0.14727 17.958042 0.017046 -1.432222 17.221094 -0.01454 3.420646 -2.864969 -0.281859 1.827739 -29.758383 2.625737 0.558886 6e-06 0.0 0.0 -0.170649 -0.149857 0.052104 -0.225558 -0.097589 0.0328 -0.206821 -0.198795 0.053517 -42.253922 -63.108715 44.212681 94.770554 -0.947501 -26.612562 6.109601 -0.371464 -0.043702 68.979347 72.333176 70.448112 17.636635 -26.322725 52.411182 -19.46666 -14.395594 29.410381 -1e-06 -8.774821 -3e-06 16.075657 -17.763714 6.209553 -0.609777 -1.795654 -3.889326 -4.807089 -11.046811 -2.93785 3e-06 -20.976019 -0.0 -5.019971 -25.033558 -4.03188 6e-06 -0.0 -0.0 -10.634535 -5.686971 -3.565587 10.573272 -17.922949 -3.113899 3e-06 -13.821208 1e-06 -0.501778 -31.181505 -4.027015 -9.872548 -58.830654 6.486733 -13.982712 -7.150198 -2.875041 13.772727 -8.401489 -3.21824 0.347733 -34.211552 0.771654 -0.963028 -17.733366 2.621019 -0.0 -0.0 -0.0 -17.346418 -20.095217 -4.20178 21.757557 -1.638373 3.86643 1e-06 -6.338823 0.0 -1.69759 -22.591751 -6.194007 -0.0 -5e-06 -2e-06 150.202103 -67.62899 30.687279 102.279808 -0.031215 -26.962025 1.86539 -0.643579 -0.005014 74.719856 76.807533 72.171829 22.182114 -20.375883 49.933296 -16.701811 -16.743525 28.476522 -2e-06 -12.690598 -2e-06 16.174726 -17.184944 2.715933 -0.10592 -1.513856 -4.27588 -5.039039 -5.61287 -2.953556 4e-06 -11.02052 -2e-06 -6.111296 -15.895329 -3.840469 0.0 0.0 1e-06 -10.283367 -5.680288 -4.341837 11.02829 -11.302402 -2.372632 -1.384269 -14.238577 -6.32012 -0.625439 -26.924191 -3.827601 -4.131114 -49.105457 -4.030309 -13.70852 -7.363475 -3.720939 18.141146 -14.052736 -3.242673 7e-06 -18.787264 -3e-06 -0.429711 -8.456045 2.555502 -0.0 1e-06 0.0 -15.923532 -20.094482 -5.473584 30.419205 -7.190823 1.735929 3e-06 -8.162924 -2e-06 -1.861901 -22.861464 -6.167941 -2e-06 -3e-06 -0.0 112.698029 -9.733177 2.469092 112.500641 -0.404857 0.366789 -79.944336 11.932257 -2.393222 -26.677265 1.912904 1.65102 -0.999998 0.0 0.0 -65.245934 -0.666054 3.231796 113.203674 0.400349 0.146861 -89.888832 2.475757 -0.870405 -35.203659 0.967008 1.236296 -1.000002 0.0 -0.0 
